<svg width="13" height="12" viewBox="0 0 13 12" fill="none" xmlns="http://www.w3.org/2000/svg">
<path d="M2.08233 6.63098H11.5738C11.7514 6.63098 11.9 6.57105 12.0197 6.45119C12.1396 6.33147 12.1995 6.18284 12.1995 6.00528C12.1995 5.82772 12.1396 5.67908 12.0197 5.55936C11.9 5.4395 11.7514 5.37957 11.5738 5.37957H2.08233L6.39488 1.06703C6.51891 0.943001 6.58016 0.797838 6.57863 0.631541C6.57696 0.465243 6.51147 0.31737 6.38216 0.187919C6.25271 0.0670889 6.10615 0.00451874 5.9425 0.00020835C5.77884 -0.00410204 5.63229 0.0584681 5.50284 0.187919L0.213364 5.47739C0.135221 5.55554 0.0801601 5.63792 0.0481796 5.72454C0.0160599 5.81117 0 5.90475 0 6.00528C0 6.10581 0.0160599 6.19938 0.0481796 6.28601C0.0801601 6.37263 0.135221 6.45502 0.213364 6.53316L5.50284 11.8226C5.61838 11.9382 5.76146 11.9973 5.93207 11.9999C6.10268 12.0026 6.25271 11.9435 6.38216 11.8226C6.51147 11.6932 6.57612 11.5445 6.57612 11.3767C6.57612 11.2087 6.51147 11.06 6.38216 10.9306L2.08233 6.63098Z" fill="#19326F"/>
</svg>
