<svg width="13" height="12" viewBox="0 0 13 12" fill="none" xmlns="http://www.w3.org/2000/svg">
<path d="M10.1172 6.63098H0.625702C0.448141 6.63098 0.299502 6.57105 0.179785 6.45119C0.0599282 6.33147 0 6.18284 0 6.00528C0 5.82772 0.0599282 5.67908 0.179785 5.55936C0.299502 5.4395 0.448141 5.37957 0.625702 5.37957H10.1172L5.80463 1.06703C5.68061 0.943001 5.61936 0.797838 5.62089 0.631541C5.62256 0.465243 5.68805 0.31737 5.81736 0.187919C5.94681 0.0670889 6.09336 0.00451874 6.25702 0.00020835C6.42067 -0.00410204 6.56723 0.0584681 6.69668 0.187919L11.9862 5.47739C12.0643 5.55554 12.1194 5.63792 12.1513 5.72454C12.1835 5.81117 12.1995 5.90475 12.1995 6.00528C12.1995 6.10581 12.1835 6.19938 12.1513 6.28601C12.1194 6.37263 12.0643 6.45502 11.9862 6.53316L6.69668 11.8226C6.58113 11.9382 6.43805 11.9973 6.26745 11.9999C6.09684 12.0026 5.94681 11.9435 5.81736 11.8226C5.68805 11.6932 5.62339 11.5445 5.62339 11.3767C5.62339 11.2087 5.68805 11.06 5.81736 10.9306L10.1172 6.63098Z" fill="#19326F"/>
</svg>
