<svg width="40" height="40" viewBox="0 0 40 40" fill="none" xmlns="http://www.w3.org/2000/svg">
<rect x="-0.5" y="0.5" width="39" height="39" rx="19.5" transform="matrix(-1 0 0 1 39 0)" stroke="#D5D9E3"/>
<path d="M24.0174 20.631H14.526C14.3484 20.631 14.1998 20.571 14.0801 20.4512C13.9602 20.3315 13.9003 20.1828 13.9003 20.0053C13.9003 19.8277 13.9602 19.6791 14.0801 19.5594C14.1998 19.4395 14.3484 19.3796 14.526 19.3796H24.0174L19.7049 15.067C19.5809 14.943 19.5196 14.7978 19.5212 14.6315C19.5228 14.4652 19.5883 14.3174 19.7176 14.1879C19.8471 14.0671 19.9936 14.0045 20.1573 14.0002C20.3209 13.9959 20.4675 14.0585 20.5969 14.1879L25.8864 19.4774C25.9646 19.5555 26.0196 19.6379 26.0516 19.7245C26.0837 19.8112 26.0998 19.9047 26.0998 20.0053C26.0998 20.1058 26.0837 20.1994 26.0516 20.286C26.0196 20.3726 25.9646 20.455 25.8864 20.5332L20.5969 25.8226C20.4814 25.9382 20.3383 25.9973 20.1677 25.9999C19.9971 26.0026 19.8471 25.9435 19.7176 25.8226C19.5883 25.6932 19.5237 25.5445 19.5237 25.3767C19.5237 25.2087 19.5883 25.06 19.7176 24.9306L24.0174 20.631Z" fill="#19326F"/>
</svg>
