<svg width="40" height="40" viewBox="0 0 40 40" fill="none" xmlns="http://www.w3.org/2000/svg">
<rect x="0.5" y="0.5" width="39" height="39" rx="19.5" stroke="#D5D9E3"/>
<path d="M15.9826 20.631H25.474C25.6516 20.631 25.8002 20.571 25.9199 20.4512C26.0398 20.3315 26.0997 20.1828 26.0997 20.0053C26.0997 19.8277 26.0398 19.6791 25.9199 19.5594C25.8002 19.4395 25.6516 19.3796 25.474 19.3796H15.9826L20.2951 15.067C20.4191 14.943 20.4804 14.7978 20.4788 14.6315C20.4772 14.4652 20.4117 14.3174 20.2824 14.1879C20.1529 14.0671 20.0064 14.0045 19.8427 14.0002C19.6791 13.9959 19.5325 14.0585 19.4031 14.1879L14.1136 19.4774C14.0354 19.5555 13.9804 19.6379 13.9484 19.7245C13.9163 19.8112 13.9002 19.9047 13.9002 20.0053C13.9002 20.1058 13.9163 20.1994 13.9484 20.286C13.9804 20.3726 14.0354 20.455 14.1136 20.5332L19.4031 25.8226C19.5186 25.9382 19.6617 25.9973 19.8323 25.9999C20.0029 26.0026 20.1529 25.9435 20.2824 25.8226C20.4117 25.6932 20.4763 25.5445 20.4763 25.3767C20.4763 25.2087 20.4117 25.06 20.2824 24.9306L15.9826 20.631Z" fill="#19326F"/>
</svg>
