<svg width="24" height="24" viewBox="0 0 24 24" fill="none" xmlns="http://www.w3.org/2000/svg">
<path d="M12.0022 24C10.3424 24 8.78232 23.6851 7.32189 23.0552C5.86147 22.4253 4.59116 21.5704 3.51095 20.4906C2.43074 19.4108 1.57547 18.1411 0.945158 16.6813C0.315052 15.2215 0 13.6618 0 12.0022C0 10.3424 0.315052 8.78232 0.945158 7.32189C1.57505 5.86147 2.43 4.59116 3.51 3.51095C4.59 2.43074 5.86 1.57547 7.32 0.945158C8.78 0.315052 10.34 0 12 0C13.0509 0 14.0696 0.133999 15.0559 0.401999C16.0422 0.669999 16.9856 1.05747 17.886 1.56442C18.1287 1.70042 18.2874 1.89642 18.3619 2.15242C18.4364 2.40821 18.3927 2.64705 18.2308 2.86895C18.0689 3.09084 17.8547 3.22968 17.5882 3.28547C17.3219 3.34126 17.0648 3.30116 16.8171 3.16516C16.0785 2.75232 15.3016 2.43737 14.4862 2.22032C13.6708 2.00326 12.8421 1.89474 12 1.89474C9.2 1.89474 6.81579 2.87895 4.84737 4.84737C2.87895 6.81579 1.89474 9.2 1.89474 12C1.89474 14.8 2.87895 17.1842 4.84737 19.1526C6.81579 21.1211 9.2 22.1053 12 22.1053C14.8 22.1053 17.1842 21.1211 19.1526 19.1526C21.1211 17.1842 22.1053 14.8 22.1053 12C22.1053 11.7556 22.096 11.5187 22.0775 11.2895C22.0587 11.0602 22.0267 10.8249 21.9815 10.5837C21.9394 10.3148 21.9855 10.0578 22.1198 9.81253C22.2543 9.56726 22.4566 9.40821 22.7267 9.33537C22.9813 9.26232 23.2174 9.29389 23.4351 9.43011C23.6529 9.5661 23.7829 9.762 23.8251 10.0178C23.8834 10.3367 23.9271 10.6595 23.9561 10.986C23.9854 11.3123 24 11.6503 24 12C24 13.66 23.6851 15.22 23.0552 16.68C22.4253 18.14 21.5704 19.41 20.4906 20.49C19.4108 21.57 18.1411 22.4249 16.6813 23.0548C15.2215 23.6849 13.6618 24 12.0022 24ZM10.2073 14.7111L22.0033 2.89547C22.1782 2.72074 22.3948 2.62811 22.6532 2.61758C22.9113 2.60705 23.1393 2.70063 23.3372 2.89832C23.5182 3.07958 23.6087 3.30053 23.6087 3.56116C23.6087 3.82179 23.5173 4.04368 23.3343 4.22684L11.0065 16.5742C10.7781 16.8024 10.5117 16.9165 10.2073 16.9165C9.90284 16.9165 9.63642 16.8024 9.408 16.5742L5.94158 13.1078C5.76684 12.9328 5.67737 12.7129 5.67316 12.4481C5.66916 12.1835 5.75863 11.9596 5.94158 11.7764C6.12474 11.5935 6.34663 11.502 6.60726 11.502C6.8679 11.502 7.08979 11.5935 7.27295 11.7764L10.2073 14.7111Z" fill="#097C69"/>
</svg>
