<svg width="18" height="18" viewBox="0 0 18 18" fill="none" xmlns="http://www.w3.org/2000/svg">
<path d="M13.5 0C15.9748 0 18 2.02432 18 4.5V13.5C18 15.9748 15.9748 18 13.5 18H4.5C2.02522 18 0 15.9748 0 13.5V4.5C0 2.02432 2.02522 0 4.5 0H13.5ZM9 5.25C6.92865 5.25 5.25 6.92865 5.25 9C5.25 11.0704 6.92865 12.75 9 12.75C11.0704 12.75 12.75 11.0704 12.75 9C12.75 6.92865 11.0704 5.25 9 5.25ZM13.875 3C13.2531 3.00004 12.75 3.5038 12.75 4.125C12.75 4.74617 13.2532 5.24996 13.875 5.25C14.4969 5.25 15 4.74619 15 4.125C15 3.50378 14.4969 3 13.875 3Z" fill="#7F48D1"/>
</svg>
