<svg width="20" height="18" viewBox="0 0 20 18" fill="none" xmlns="http://www.w3.org/2000/svg">
<path d="M9.5 17.19L8.4 16.2C6.74 14.7 5.37 13.4 4.29 12.32C3.21 11.24 2.35 10.28 1.71 9.43C1.08 8.59 0.63 7.82 0.38 7.12C0.13 6.43 0 5.72 0 5C0 3.58 0.48 2.39 1.44 1.44C2.4 0.48 3.59 0 5 0C5.87 0 6.7 0.2 7.48 0.61C8.26 1.02 8.93 1.6 9.51 2.37C10.08 1.61 10.76 1.02 11.54 0.61C12.32 0.2 13.14 0 14.02 0C15.44 0 16.63 0.48 17.58 1.44C18.54 2.4 19.02 3.59 19.02 5C19.02 5.72 18.89 6.42 18.64 7.12C18.39 7.81 17.95 8.58 17.31 9.43C16.68 10.27 15.82 11.23 14.74 12.32C13.66 13.4 12.29 14.69 10.62 16.2L9.52 17.19H9.5Z" fill="#FF4757"/>
</svg>
