<svg width="9" height="16" viewBox="0 0 9 16" fill="none" xmlns="http://www.w3.org/2000/svg">
<path d="M1.50002 0.3L8.50002 7.3C8.60002 7.4 8.70002 7.5 8.80002 7.6C8.80002 7.7 8.90002 7.9 8.90002 8C8.90002 8.1 8.90002 8.3 8.80002 8.4C8.80002 8.5 8.70002 8.6 8.50002 8.8L1.50002 15.8C1.30002 15.9 1.10002 16 0.900025 16C0.700025 16 0.500024 15.9 0.300024 15.7C0.100024 15.5 2.37807e-05 15.3 2.37632e-05 15.1C2.37457e-05 14.9 0.100024 14.7 0.300024 14.6L6.90002 8L0.300023 1.4C0.200022 1.2 0.100023 1 0.100023 0.8C0.100023 0.6 0.200022 0.400001 0.300023 0.200002C0.500022 0.100001 0.700023 7.16867e-07 0.900023 6.99382e-07C1.10002 6.81898e-07 1.30002 0.1 1.50002 0.3Z" fill="#212427"/>
</svg>
