<svg width="22" height="16" viewBox="0 0 22 16" fill="none" xmlns="http://www.w3.org/2000/svg">
<g opacity="0.7">
<path d="M5.79559 11.5912C4.17719 11.5912 2.80661 11.0299 1.68387 9.9073C0.561291 8.78456 0 7.41399 0 5.79559C0 4.17719 0.561291 2.80661 1.68387 1.68387C2.80661 0.561291 4.17719 0 5.79559 0C7.41399 0 8.78456 0.561291 9.9073 1.68387C11.0299 2.80661 11.5912 4.17719 11.5912 5.79559C11.5912 6.47242 11.4776 7.11885 11.2505 7.73487C11.0232 8.3509 10.72 8.88668 10.3409 9.34222L15.7941 14.7954C15.9254 14.9265 15.9925 15.0914 15.9955 15.2902C15.9985 15.4889 15.9314 15.6568 15.7941 15.7941C15.6568 15.9314 15.4904 16 15.2947 16C15.0991 16 14.9327 15.9314 14.7954 15.7941L9.34222 10.3409C8.86835 10.7321 8.32341 11.0383 7.70739 11.2595C7.09137 11.4806 6.4541 11.5912 5.79559 11.5912ZM5.79559 10.1698C7.01673 10.1698 8.05102 9.74603 8.89845 8.89845C9.74603 8.05102 10.1698 7.01673 10.1698 5.79559C10.1698 4.57444 9.74603 3.54015 8.89845 2.69273C8.05102 1.84514 7.01673 1.42135 5.79559 1.42135C4.57444 1.42135 3.54015 1.84514 2.69273 2.69273C1.84515 3.54015 1.42135 4.57444 1.42135 5.79559C1.42135 7.01673 1.84515 8.05102 2.69273 8.89845C3.54015 9.74603 4.57444 10.1698 5.79559 10.1698Z" fill="#64748B"/>
</g>
</svg>
