<svg width="96" height="80" viewBox="0 0 96 80" fill="none" xmlns="http://www.w3.org/2000/svg">
<path d="M47.6546 80C69.7546 80 87.6546 62.1 87.6546 40C87.6546 17.9 69.7546 0 47.6546 0C25.5546 0 7.6546 17.9 7.6546 40C7.6546 62.1 25.5546 80 47.6546 80Z" fill="#E8E1F3"/>
<path d="M32.654 11.5332H63.4873C66.4206 11.5332 68.8206 13.9332 68.8206 16.8665V57.8665C68.8206 60.7999 66.4206 63.1999 63.4873 63.1999H32.654C29.7206 63.1999 27.3206 60.7999 27.3206 57.8665V16.8665C27.3206 13.8999 29.7206 11.5332 32.654 11.5332Z" fill="url(#paint0_linear_1_3916)"/>
<path d="M32.6213 18.2002H46.0213C46.9213 18.2002 47.6546 18.9335 47.6546 19.8335C47.6546 20.7335 46.9213 21.4669 46.0213 21.4669H32.6213C31.7213 21.4669 30.988 20.7335 30.988 19.8335C30.988 18.9002 31.7213 18.2002 32.6213 18.2002Z" fill="#DAD1E8"/>
<path d="M32.6213 27.4668H62.688C63.588 27.4668 64.3213 28.2001 64.3213 29.1001C64.3213 30.0001 63.588 30.7335 62.688 30.7335H32.6213C31.7213 30.7335 30.988 30.0001 30.988 29.1001C30.988 28.1668 31.7213 27.4668 32.6213 27.4668Z" fill="#DAD1E8"/>
<path d="M32.6213 36.7334H62.688C63.588 36.7334 64.3213 37.4667 64.3213 38.3667C64.3213 39.2667 63.588 40.0001 62.688 40.0001H32.6213C31.7213 40.0001 30.988 39.2667 30.988 38.3667C30.988 37.4334 31.7213 36.7334 32.6213 36.7334Z" fill="#DAD1E8"/>
<path d="M32.6213 46H62.688C63.588 46 64.3213 46.7333 64.3213 47.6333C64.3213 48.5333 63.588 49.2667 62.688 49.2667H32.6213C31.7213 49.2667 30.988 48.5333 30.988 47.6333C30.988 46.7 31.7213 46 32.6213 46Z" fill="#DAD1E8"/>
<path d="M32.6213 55.2666H62.688C63.588 55.2666 64.3213 55.9999 64.3213 56.8999C64.3213 57.7999 63.588 58.5333 62.688 58.5333H32.6213C31.7213 58.5333 30.988 57.7999 30.988 56.8999C30.988 55.9666 31.7213 55.2666 32.6213 55.2666Z" fill="#DAD1E8"/>
<path d="M93.6877 5.7998H73.6544C72.7211 5.7998 71.9544 6.5998 71.9544 7.56647V17.4665C71.9544 18.4331 72.7211 19.2331 73.6544 19.2331H93.6877C94.6211 19.2331 95.3877 18.4331 95.3877 17.4665V7.5998C95.3877 6.5998 94.6544 5.7998 93.6877 5.7998Z" fill="white"/>
<path d="M76.9878 14.6665C78.0878 14.6665 78.9878 13.7665 78.9878 12.6665C78.9878 11.5665 78.0878 10.6665 76.9878 10.6665C75.8878 10.6665 74.9878 11.5665 74.9878 12.6665C74.9878 13.7665 75.8878 14.6665 76.9878 14.6665Z" fill="#DAD1E8"/>
<path d="M83.6545 10.6665H90.3211C91.4211 10.6665 92.3211 11.5665 92.3211 12.6665C92.3211 13.7665 91.4211 14.6665 90.3211 14.6665H83.6545C82.5545 14.6665 81.6545 13.7665 81.6545 12.6665C81.6545 11.5665 82.5545 10.6665 83.6545 10.6665Z" fill="#DAD1E8"/>
<path fill-rule="evenodd" clip-rule="evenodd" d="M59.3546 65.5334C63.6546 65.5334 67.6213 64.2334 70.9546 62L84.5213 74.9667L89.4546 69.2667L76.3546 56.7667C78.788 53.3667 80.188 49.2 80.188 44.7C80.188 33.2 70.8546 23.8667 59.3546 23.8667C47.8546 23.8667 38.5213 33.2 38.5213 44.7C38.5213 56.2 47.8546 65.5334 59.3546 65.5334ZM77.1213 44.7C77.1213 54.4334 69.2213 62.3334 59.488 62.3334C49.7546 62.3334 41.8546 54.4334 41.8546 44.7C41.8546 34.9667 49.7546 27.0667 59.488 27.0667C69.2213 27.0667 77.1213 34.9334 77.1213 44.7Z" fill="#7F48D1"/>
<path d="M59.4886 62.6665C69.522 62.6665 77.6553 54.5998 77.6553 44.6665C77.6553 34.7332 69.522 26.6665 59.4886 26.6665C49.4553 26.6665 41.322 34.7332 41.322 44.6665C41.322 54.5998 49.4553 62.6665 59.4886 62.6665Z" fill="white" fill-opacity="0.3"/>
<path d="M62.6213 44.6668L67.0213 40.3002C67.4213 39.8668 67.6546 39.3002 67.6546 38.7002C67.6546 38.1002 67.388 37.5335 66.988 37.1002C66.5546 36.6668 65.988 36.4335 65.388 36.4335C64.788 36.4335 64.2213 36.6335 63.788 37.0668L59.388 41.4335L54.988 37.0668C54.788 36.8335 54.5213 36.6668 54.2546 36.5335C53.988 36.4002 53.6546 36.3335 53.3546 36.3335C53.0546 36.3335 52.7546 36.4002 52.4546 36.5002C52.1546 36.6002 51.9213 36.8002 51.688 37.0002C51.4546 37.2002 51.288 37.4668 51.188 37.7668C51.088 38.0668 51.0213 38.3668 51.0213 38.6668C51.0213 38.9668 51.088 39.2668 51.2213 39.5668C51.3546 39.8335 51.5213 40.1002 51.7546 40.3002L56.1546 44.6668L51.7546 49.0335C51.5213 49.2335 51.3546 49.5002 51.2213 49.7668C51.088 50.0335 51.0213 50.3335 51.0213 50.6668C51.0213 50.9668 51.088 51.2668 51.188 51.5668C51.288 51.8668 51.488 52.1002 51.688 52.3335C51.9213 52.5335 52.1546 52.7335 52.4546 52.8335C52.7546 52.9335 53.0546 53.0002 53.3546 53.0002C53.6546 53.0002 53.9546 52.9335 54.2546 52.8002C54.5213 52.6668 54.788 52.5002 54.988 52.2668L59.388 47.9002L63.788 52.2668C64.2213 52.6668 64.788 52.8668 65.388 52.8335C65.988 52.8002 66.5213 52.5668 66.9546 52.1668C67.3546 51.7668 67.6213 51.2002 67.6213 50.6335C67.6546 50.0668 67.4213 49.5002 67.0546 49.0335L62.6213 44.6668Z" fill="#7F48D1"/>
<path d="M84.5207 74.9334L89.454 69.2334L90.1874 69.9334C90.9207 70.6334 91.3207 71.5667 91.3874 72.6001C91.4207 73.6334 91.0874 74.6334 90.454 75.3667C89.7874 76.1334 88.8874 76.5667 87.9207 76.6334C86.954 76.6667 85.9874 76.3334 85.2874 75.6334L84.5207 74.9334Z" fill="#ADBDE3"/>
<path fill-rule="evenodd" clip-rule="evenodd" d="M16.4209 20.7337C16.4209 20.267 16.3542 19.767 16.2209 19.3004C15.7875 17.6004 13.9209 16.5337 11.9542 16.267C9.95422 16.0004 7.92088 16.6003 7.12088 18.067C6.65422 18.9003 6.58755 19.6337 6.78755 20.2337C6.98755 20.8337 7.42088 21.3337 8.02088 21.7337C9.68755 22.8337 12.5875 23.067 13.9209 22.6004C14.5209 22.4004 15.1209 22.1337 15.7209 21.8337C15.3875 23.7337 14.1542 25.567 12.4875 27.2003C8.88755 30.767 3.25422 33.467 0.220882 34.4337C0.0542154 34.5004 -0.0457846 34.667 0.0208821 34.8337C0.0875487 35.0003 0.254216 35.1004 0.420882 35.0337C3.52088 34.0337 9.25422 31.267 12.9209 27.6337C14.8209 25.767 16.1875 23.667 16.4209 21.4337C20.7209 19.0337 24.2542 14.667 27.2875 11.0004C27.3876 10.867 27.3876 10.667 27.2542 10.5337C27.1209 10.4337 26.9209 10.4337 26.8209 10.567C23.8876 14.167 20.5209 18.3337 16.4209 20.7337ZM15.7875 21.067C15.8209 20.5337 15.7542 20.0004 15.6209 19.4337C15.2542 17.967 13.5875 17.1003 11.8875 16.867C10.8209 16.7337 9.75422 16.8337 8.88755 17.2337C8.35422 17.467 7.92088 17.8337 7.65422 18.3337C7.32088 18.967 7.22088 19.5337 7.38755 20.0003C7.52088 20.467 7.88755 20.867 8.35422 21.167C9.85422 22.167 12.5209 22.367 13.7209 21.967C14.4209 21.7337 15.1209 21.4337 15.7875 21.067Z" fill="#3159BA"/>
<path d="M92.6543 53.667C93.7589 53.667 94.6543 52.7716 94.6543 51.667C94.6543 50.5624 93.7589 49.667 92.6543 49.667C91.5497 49.667 90.6543 50.5624 90.6543 51.667C90.6543 52.7716 91.5497 53.667 92.6543 53.667Z" fill="#DAD1E8"/>
<path fill-rule="evenodd" clip-rule="evenodd" d="M17.1215 65.4666C17.4882 65.3333 17.8548 65.1666 18.1548 64.8999C18.4882 64.5999 18.6548 64.1999 18.7215 63.7999C18.8548 63.2666 18.8882 62.6999 19.0215 62.1666C19.0882 61.9666 19.1882 61.8999 19.2215 61.8666C19.3215 61.7666 19.4548 61.7666 19.5548 61.7666C19.6882 61.7666 19.8548 61.8333 19.9882 62.0666C19.9882 62.0999 20.0215 62.1333 20.0548 62.1999C20.0548 62.2333 20.0882 62.3999 20.0882 62.4666C20.1215 62.6333 20.1548 62.7666 20.1548 62.9333C20.2215 63.4666 20.2548 63.8999 20.4882 64.3666C20.7882 65.0333 21.1215 65.4333 21.5215 65.5999C21.9215 65.7666 22.4215 65.7333 23.0548 65.5999C23.1215 65.5999 23.1882 65.5666 23.2215 65.5666C23.4882 65.4999 23.7548 65.6999 23.8215 65.9999C23.8882 66.2999 23.6882 66.5666 23.4215 66.6333C23.3548 66.6333 23.3215 66.6666 23.2548 66.6666C22.4215 66.8999 21.4548 67.6666 20.8882 68.3666C20.7215 68.5666 20.4548 69.1666 20.1882 69.5333C19.9882 69.7999 19.7882 69.9999 19.5882 70.0666C19.4548 70.0999 19.3548 70.0999 19.2882 70.0666C19.1548 70.0333 19.0548 69.9666 18.9882 69.8666C18.9548 69.7999 18.9215 69.7333 18.8882 69.6333C18.8882 69.5666 18.8882 69.4666 18.8882 69.3999C18.8215 69.1999 18.7548 69.0333 18.7215 68.8333C18.6215 68.3666 18.3882 68.0666 18.1215 67.6999C17.8882 67.3333 17.6215 67.0999 17.2215 66.9333C17.1548 66.9333 16.7548 66.7999 16.6215 66.7666C16.4215 66.6666 16.3215 66.5333 16.2882 66.4666C16.2215 66.3333 16.2215 66.1999 16.2215 66.0999C16.2548 65.9666 16.2882 65.8333 16.4215 65.7333C16.4882 65.6666 16.5882 65.5999 16.7215 65.5666C16.7882 65.4666 17.0882 65.4666 17.1215 65.4666ZM19.5215 64.6999C19.5548 64.7333 19.5548 64.7999 19.5882 64.8333C20.0548 65.7999 20.5548 66.3333 21.1548 66.5666H21.1882C20.7882 66.8999 20.3882 67.2666 20.1215 67.5999C19.9882 67.7333 19.8548 68.0333 19.6882 68.3333C19.5215 67.7999 19.2882 67.4333 18.9548 66.9666C18.7215 66.5999 18.4548 66.3333 18.1548 66.1333C18.3882 65.9999 18.6215 65.8666 18.8215 65.6666C19.1215 65.4333 19.3548 65.0666 19.5215 64.6999Z" fill="#ADBDE3"/>
<defs>
<linearGradient id="paint0_linear_1_3916" x1="48.0768" y1="11.5185" x2="48.0768" y2="63.1949" gradientUnits="userSpaceOnUse">
<stop stop-color="white"/>
<stop offset="0.7188" stop-color="#FAFAFA"/>
</linearGradient>
</defs>
</svg>
