<svg width="15" height="15" viewBox="0 0 15 15" fill="none" xmlns="http://www.w3.org/2000/svg">
<path d="M7.5 7C6.54 7 5.71 6.66 5.03 5.97C4.34 5.28 4 4.46 4 3.5C4 2.54 4.34 1.71 5.03 1.03C5.72 0.34 6.54 0 7.5 0C8.46 0 9.29 0.34 9.97 1.03C10.66 1.72 11 2.54 11 3.5C11 4.46 10.66 5.29 9.97 5.97C9.28 6.66 8.46 7 7.5 7ZM0 14.62V12.4C0 11.91 0.13 11.46 0.4 11.04C0.67 10.62 1.02 10.3 1.47 10.08C2.46 9.6 3.46 9.23 4.46 8.99C5.47 8.75 6.48 8.63 7.5 8.63C8.52 8.63 9.54 8.75 10.54 8.99C11.55 9.23 12.54 9.6 13.53 10.08C13.98 10.3 14.33 10.63 14.6 11.04C14.87 11.45 15 11.91 15 12.4V14.62H0ZM13.5 13.12V12.4C13.5 12.2 13.44 12.01 13.32 11.84C13.2 11.67 13.04 11.53 12.84 11.42C11.98 11 11.1 10.67 10.2 10.46C9.3 10.24 8.4 10.13 7.49 10.13C6.58 10.13 5.67 10.24 4.78 10.46C3.88 10.68 3.01 11 2.14 11.42C1.94 11.53 1.78 11.67 1.66 11.84C1.54 12.01 1.48 12.2 1.48 12.4V13.12H13.5ZM7.5 5.5C8.05 5.5 8.52 5.3 8.91 4.91C9.3 4.52 9.5 4.05 9.5 3.5C9.5 2.95 9.3 2.48 8.91 2.09C8.52 1.7 8.05 1.5 7.5 1.5C6.95 1.5 6.48 1.7 6.09 2.09C5.7 2.48 5.5 2.95 5.5 3.5C5.5 4.05 5.7 4.52 6.09 4.91C6.48 5.3 6.95 5.5 7.5 5.5Z" fill="#64748B"/>
</svg>
